<svg width="50" height="50" viewBox="0 0 50 50" fill="none" xmlns="http://www.w3.org/2000/svg">
<path d="M28.1243 15.6257C18.9576 18.1257 15.2771 26.7368 15.6243 30.209C12.1521 32.6395 5.62429 38.1256 7.29095 40.6256C8.95762 43.1256 15.6243 38.8895 18.7493 36.459C20.4854 36.459 24.791 36.459 28.1243 36.459C31.4576 36.459 35.7632 29.5145 37.4993 26.0423V18.7507C39.166 17.9173 40.2771 16.3201 40.6243 15.6257L43.7493 12.5007H40.6243C39.9298 11.1118 37.7076 8.33398 34.3743 8.33398C27.0826 8.33398 28.1243 14.584 28.1243 15.6257ZM28.1243 15.6257C29.5132 15.9729 32.291 17.709 32.291 21.8757C32.291 26.0423 23.2632 30.5562 18.7493 32.2923" stroke="#4D9DE0" stroke-width="2" stroke-linecap="round" stroke-linejoin="round"/>
<path d="M28.125 36.459L25 41.6673H32.2917" stroke="#4D9DE0" stroke-width="2" stroke-linecap="round" stroke-linejoin="round"/>
</svg>
