<svg width="50" height="50" viewBox="0 0 50 50" fill="none" xmlns="http://www.w3.org/2000/svg">
<path d="M22.9173 31.5L31.2507 40.6966M31.2507 40.6966H16.6673C14.9312 40.3494 11.459 38.8216 11.459 35.4883C11.459 31.3216 11.459 26.1133 11.459 25.0716C11.459 24.0299 12.5007 20.9049 16.6673 20.9049C20.834 20.9049 20.834 25.0716 22.9173 25.0716C25.0007 25.0716 29.1673 26.1133 28.1257 21.9466C27.2923 18.6133 27.7784 15.0022 28.1257 13.6133L29.1673 10.4883L31.2507 13.6133H38.5423L40.6257 10.4883C40.6257 12.9188 40.6257 18.4049 40.6257 20.9049C40.6257 24.0299 37.5007 24.0299 37.5007 25.0716C37.5007 26.1133 37.5007 29.2383 37.5007 32.3633C37.5007 35.4883 39.584 35.4883 39.584 37.5716C39.584 39.2383 39.584 40.3494 39.584 40.6966H31.2507Z" stroke="#4D9DE0" stroke-width="2" stroke-linecap="round" stroke-linejoin="round"/>
<path d="M11.459 24.0289C10.0701 24.0289 8.33398 22.5698 8.33398 16.7364C8.33398 10.9031 15.2784 10.1392 18.7507 10.4864" stroke="#4D9DE0" stroke-width="2" stroke-linecap="round" stroke-linejoin="round"/>
</svg>
