<svg width="48" height="48" viewBox="0 0 48 48" fill="none" xmlns="http://www.w3.org/2000/svg">
<circle cx="24" cy="24" r="24" fill="#FFC533"/>
<path d="M9.07528 14.4551C9.6149 14.4551 12.385 14.5104 13.1404 14.7142C13.8959 14.918 15.3176 15.7554 15.215 18.0397C15.1123 20.3241 13.776 21.4445 12.8286 21.984C11.8813 22.5235 9.87586 23.1984 9.03646 23.3867C9.03646 23.3867 8.97087 24.2159 8.91939 24.7295C8.86791 25.2431 8.72136 26.2704 8.63991 26.9831C8.53743 27.8798 8.42772 28.6858 8.35578 29.0574C8.28384 29.4291 7.88811 29.8847 7.31252 29.7887C6.73692 29.6928 6.42515 29.1653 6.52108 28.6738C6.617 28.1822 8.13994 15.7139 8.13994 15.3303C8.13994 14.9466 8.53566 14.4551 9.07528 14.4551ZM12.6248 16.4692C12.0132 16.2054 10.7646 16.1575 9.92668 16.4692L9.3271 21.3486C10.922 21.0129 13.5242 20.512 13.5242 17.74C13.5242 17.0253 13.2364 16.7329 12.6248 16.4692Z" fill="white"/>
<path d="M15.748 21.3682C16.9623 21.3683 17.8769 21.8183 17.959 23.0186C18.0409 24.2191 17.2363 25.7362 16.373 26.2998C15.5098 26.8632 14.2434 27.0946 13.752 27.0674C13.7519 27.2221 13.4667 27.8238 13.752 28.3037C14.0375 28.7832 14.9226 28.6443 15.6475 28.3633C16.3725 28.0821 16.8482 27.583 17.5557 27.6309C18.263 27.6788 18.4289 28.3031 18.2881 28.7471C18.1471 29.1911 16.0699 30.3378 14.7598 30.2832C13.4496 30.2286 11.8575 29.4724 11.9258 26.8936C11.9942 24.3148 13.5373 21.1908 15.748 21.3682ZM16.541 23.8545C16.6596 23.3217 16.238 22.8206 15.5693 22.9434C14.9006 23.0663 13.9737 24.7795 14.0283 25.3662C14.2968 25.3889 14.7942 25.348 15.1475 25.1885C15.5706 24.9974 16.3621 24.6575 16.541 23.8545Z" fill="white"/>
<path d="M20.9991 14.4629C20.3737 14.4629 20.0363 14.9506 19.9818 15.3187C19.9272 15.6867 19.5406 18.8194 19.5406 18.8194H18.3629C18.0218 18.8194 17.6074 19.191 17.6074 19.5987C17.6074 20.0063 17.8832 20.4259 18.3629 20.4259H19.3436C19.1117 21.7664 18.6582 24.9324 18.5709 26.8409C18.4617 29.2266 19.594 30.1399 20.7127 30.3035C21.8313 30.4671 22.8957 29.7052 23.4353 29.2137C23.975 28.7221 23.843 27.8589 23.0756 27.7031C22.3081 27.5472 22.0359 28.6404 21.272 28.5995C20.508 28.5586 20.4494 27.5538 20.4494 27.0222C20.4494 26.5968 20.9966 22.4298 21.2648 20.4259H22.5407C22.8681 20.4259 23.25 20.1339 23.2637 19.6431C23.2773 19.1524 22.8596 18.8194 22.464 18.8194H21.4567C21.5931 17.8515 21.8165 16.002 21.8644 15.5225C21.9124 15.0429 21.6246 14.4629 20.9991 14.4629Z" fill="white"/>
<path d="M37.3463 14.4551C36.722 14.4551 36.3853 14.9428 36.3308 15.3109C36.2764 15.679 35.8905 18.8118 35.8905 18.8118H34.715C34.3746 18.8118 33.9609 19.1835 33.9609 19.5911C33.9609 19.9987 34.2362 20.4184 34.715 20.4184H35.6939C35.4624 21.7589 35.0097 24.9251 34.9226 26.8337C34.8137 29.2195 35.9438 30.1329 37.0604 30.2965C38.1769 30.4601 39.2393 29.6982 39.778 29.2066C40.3166 28.715 40.1849 27.8518 39.4189 27.6959C38.6529 27.5401 38.3812 28.6333 37.6186 28.5924C36.8561 28.5515 36.7976 27.5467 36.7976 27.015C36.7976 26.5896 37.3437 22.4224 37.6115 20.4184H38.885C39.2118 20.4184 39.593 20.1263 39.6066 19.6356C39.6203 19.1448 39.2033 18.8118 38.8085 18.8118H37.803C37.9392 17.8439 38.1621 15.9943 38.21 15.5147C38.2579 15.0351 37.9706 14.4551 37.3463 14.4551Z" fill="white"/>
<path d="M28.4102 14.5576C30.0613 14.1217 31.1525 15.1715 31.2207 16.0029C31.2889 16.8344 31.1526 18.0612 30.252 20.1055C29.5313 21.7411 27.3891 23.6765 26.3975 24.4443L26.3262 25.0264H27.3994C27.8498 25.0264 28.1503 25.4485 28.123 25.8574C28.0957 26.2663 27.9999 26.5996 27.3994 26.5996H26.1465L25.75 29.8457C26.4096 29.355 27.9564 28.1444 28.2803 27.8809C28.604 27.6174 29.1801 27.5696 29.5039 28.0127C29.8276 28.4557 29.6356 28.9108 29.3359 29.1504C29.0364 29.3897 25.2375 32.2862 25.1631 32.4678C25.0948 32.645 25.0387 33.5181 24.8066 35.29C24.5745 37.0617 23.4418 37.8799 22.0908 37.8799C20.74 37.8798 19.8662 36.6668 19.7568 35.9443C19.6477 35.222 19.7435 34.1313 20.3984 33.627C20.9225 33.2235 22.7456 31.8682 23.5918 31.2412L24.2031 26.5996C23.9573 26.6042 23.3896 26.6105 23.084 26.5996C22.7021 26.5859 22.4863 26.3888 22.4727 25.8574C22.459 25.3259 22.8141 25.0264 23.1689 25.0264H24.4316C24.6364 23.4861 24.9136 20.1038 25.1865 18.8389C25.5277 17.2577 26.7588 14.9938 28.4102 14.5576ZM23.2373 33.708C22.6959 34.0397 21.6133 34.8211 21.6133 35.29C21.6134 35.8758 21.8593 36.1072 22.3232 36.0527C22.7871 35.9978 23.1554 34.9617 23.2373 33.708ZM29.5146 17.0518C29.5691 16.4658 29.1603 15.9077 28.2324 16.6572C27.49 17.2571 26.8951 20.4597 26.6904 21.9863C27.1726 21.4048 28.2265 20.1003 28.5869 19.5332C29.0373 18.8244 29.4601 17.6379 29.5146 17.0518Z" fill="white"/>
<path d="M31.3779 21.3242C32.2513 21.3244 32.2667 22.1927 32.1934 22.6494C32.12 23.1066 31.8602 25.7372 31.6924 26.876C31.5246 28.0148 31.9116 28.5401 32.4648 28.6006C33.0181 28.661 33.2446 27.6643 33.9678 27.6748C34.6906 27.6856 35.0234 28.469 34.6064 29.0303C34.1895 29.5916 33.0368 30.4277 31.9209 30.248C30.805 30.0681 29.9767 29.3827 29.8086 28.0029C29.6406 26.623 30.2121 23.413 30.3213 22.6494C30.4456 22.186 30.5044 21.3242 31.3779 21.3242ZM31.5586 18.8184C32.0086 18.8186 32.3729 19.1837 32.373 19.6338C32.373 20.0839 32.0087 20.449 31.5586 20.4492C31.1083 20.4492 30.7432 20.0841 30.7432 19.6338C30.7433 19.1836 31.1084 18.8184 31.5586 18.8184Z" fill="white"/>
</svg>
