<svg width="50" height="50" viewBox="0 0 50 50" fill="none" xmlns="http://www.w3.org/2000/svg">
<path d="M10.4157 25C10.0685 29.1667 9.79074 37.5 11.4574 37.5C13.5407 37.5 14.5825 34.375 14.5825 32.2917C15.4158 33.125 19.0964 33.3333 20.8325 33.3333C21.6658 33.3333 26.7353 33.3333 29.1658 33.3333C29.1658 34.7222 29.7908 37.5 32.2908 37.5C35.4158 37.5 34.3741 33.3333 34.3741 31.25C34.3741 29.1667 36.4575 29.1667 36.4575 26.0417C36.4575 23.5417 35.763 22.2222 35.4158 21.875" stroke="#4D9DE0" stroke-width="2" stroke-linecap="round" stroke-linejoin="round"/>
<path d="M10.4167 25C9.02778 25.6944 6.25 26.4583 6.25 23.9583C6.25 20.8333 9.375 20.8333 12.5 20.8333C15.625 20.8333 18.75 22.9167 22.9167 21.875C26.25 21.0417 30.5556 13.1944 32.2917 9.375C33.3333 11.4583 36.4583 15.625 40.625 15.625C42.7083 15.625 43.75 18.75 40.625 19.7917C36.4583 21.1806 36.4583 20.8333 32.2917 23.9583" stroke="#4D9DE0" stroke-width="2" stroke-linecap="round" stroke-linejoin="round"/>
</svg>
