<svg width="150" height="150" viewBox="0 0 150 150" fill="none" xmlns="http://www.w3.org/2000/svg">
<path d="M140.373 107.312L132.436 65.4995C131.331 59.6536 128.431 54.2972 124.141 50.1752C119.851 46.0531 114.383 43.3702 108.498 42.4995C112.95 48.4652 115.694 55.5303 116.436 62.937L119.311 91.3745C119.729 95.3023 119.34 99.2742 118.169 103.047C116.998 106.819 115.068 110.312 112.498 113.312C113.327 117.033 115.6 120.273 118.817 122.318C122.035 124.364 125.933 125.047 129.654 124.218C133.376 123.389 136.615 121.116 138.661 117.899C140.706 114.681 141.389 110.783 140.561 107.062L140.373 107.312Z" stroke="#FFC533" stroke-width="4.22535" stroke-linecap="round" stroke-linejoin="round"/>
<path d="M30.6876 91.3745L33.5626 62.937C34.3041 55.5303 37.048 48.4652 41.5001 42.4995C35.6147 43.3702 30.1469 46.0531 25.8568 50.1752C21.5667 54.2972 18.6676 59.6536 17.5626 65.4995L9.62509 107.312C8.79628 111.033 9.47972 114.931 11.525 118.149C13.5704 121.366 16.81 123.639 20.5313 124.468C24.2527 125.297 28.1508 124.614 31.3682 122.568C34.5856 120.523 36.8588 117.283 37.6876 113.562C35.0523 110.547 33.0698 107.02 31.865 103.201C30.6603 99.3824 30.2594 95.3557 30.6876 91.3745Z" stroke="#FFC533" stroke-width="4.22535" stroke-linecap="round" stroke-linejoin="round"/>
<path d="M90.1241 123.375H59.8741C55.7926 123.394 51.7524 122.557 48.0146 120.918C44.2767 119.278 40.9243 116.873 38.1737 113.857C35.4232 110.842 33.3357 107.283 32.046 103.41C30.7564 99.5377 30.2933 95.4378 30.6866 91.3752L33.5616 62.9377C34.5579 52.6493 39.3578 43.1029 47.0219 36.1671C54.686 29.2312 64.6626 25.4052 74.9991 25.4377C85.3357 25.4052 95.3123 29.2312 102.976 36.1671C110.641 43.1029 115.44 52.6493 116.437 62.9377L119.312 91.3752C119.705 95.4378 119.242 99.5377 117.952 103.41C116.663 107.283 114.575 110.842 111.825 113.857C109.074 116.873 105.722 119.278 101.984 120.918C98.2458 122.557 94.2057 123.394 90.1241 123.375Z" stroke="#FFC533" stroke-width="4.22535" stroke-linecap="round" stroke-linejoin="round"/>
<path d="M74.998 100.875L66.0605 90.8125C66.0605 88.7405 66.8836 86.7534 68.3488 85.2882C69.8139 83.8231 71.801 83 73.873 83H76.1231C78.1951 83 80.1822 83.8231 81.6473 85.2882C83.1125 86.7534 83.9356 88.7405 83.9356 90.8125L74.998 100.875Z" stroke="#FFC533" stroke-width="4.22535" stroke-linecap="round" stroke-linejoin="round"/>
<path d="M75 100.874V123.374" stroke="#FFC533" stroke-width="4.22535" stroke-linecap="round" stroke-linejoin="round"/>
<path d="M55.3105 63.374V68.624" stroke="#FFC533" stroke-width="4.22535" stroke-linecap="round" stroke-linejoin="round"/>
<path d="M94.6855 63.374V68.624" stroke="#FFC533" stroke-width="4.22535" stroke-linecap="round" stroke-linejoin="round"/>
</svg>
