<svg width="47" height="52" viewBox="0 0 47 52" fill="none" xmlns="http://www.w3.org/2000/svg">
<path d="M6.15268 48.6127L6.74047 47.8037L6.15268 48.6127ZM3.38729 45.8473L4.1963 45.2595L3.38729 45.8473ZM43.6127 45.8473L42.8037 45.2595L43.6127 45.8473ZM40.8473 48.6127L40.2595 47.8037L40.8473 48.6127ZM40.8473 3.38729L40.2595 4.1963L40.8473 3.38729ZM43.6127 6.15268L42.8037 6.74047L43.6127 6.15268ZM6.15268 3.38729L6.74047 4.1963L6.15268 3.38729ZM3.38729 6.15268L4.1963 6.74047L3.38729 6.15268ZM13.5 35C12.9477 35 12.5 35.4477 12.5 36C12.5 36.5523 12.9477 37 13.5 37V35ZM33.5 37C34.0523 37 34.5 36.5523 34.5 36C34.5 35.4477 34.0523 35 33.5 35V37ZM18.5 25C17.9477 25 17.5 25.4477 17.5 26C17.5 26.5523 17.9477 27 18.5 27V25ZM28.5 27C29.0523 27 29.5 26.5523 29.5 26C29.5 25.4477 29.0523 25 28.5 25V27ZM13.5 15C12.9477 15 12.5 15.4477 12.5 16C12.5 16.5523 12.9477 17 13.5 17V15ZM33.5 17C34.0523 17 34.5 16.5523 34.5 16C34.5 15.4477 34.0523 15 33.5 15V17ZM46 23.5H45V28.5H46H47V23.5H46ZM1 28.5H2V23.5H1H0V28.5H1ZM23.5 51V50C18.7906 50 15.3388 49.9986 12.6509 49.7074C9.98164 49.4182 8.1845 48.8528 6.74047 47.8037L6.15268 48.6127L5.5649 49.4217C7.40669 50.7599 9.59604 51.3881 12.4354 51.6958C15.2561 52.0014 18.8351 52 23.5 52V51ZM1 28.5H0C0 33.1649 -0.00137258 36.7439 0.304229 39.5646C0.611858 42.404 1.24013 44.5933 2.57827 46.4351L3.38729 45.8473L4.1963 45.2595C3.14716 43.8155 2.58179 42.0184 2.29259 39.3491C2.00137 36.6612 2 33.2094 2 28.5H1ZM6.15268 48.6127L6.74047 47.8037C5.76418 47.0944 4.90562 46.2358 4.1963 45.2595L3.38729 45.8473L2.57827 46.4351C3.41094 47.5812 4.41882 48.5891 5.5649 49.4217L6.15268 48.6127ZM46 28.5H45C45 33.2094 44.9986 36.6612 44.7074 39.3491C44.4182 42.0184 43.8528 43.8155 42.8037 45.2595L43.6127 45.8473L44.4217 46.4351C45.7599 44.5933 46.3881 42.404 46.6958 39.5646C47.0014 36.7439 47 33.1649 47 28.5H46ZM23.5 51V52C28.1649 52 31.7439 52.0014 34.5646 51.6958C37.404 51.3881 39.5933 50.7599 41.4351 49.4217L40.8473 48.6127L40.2595 47.8037C38.8155 48.8528 37.0184 49.4182 34.3491 49.7074C31.6612 49.9986 28.2094 50 23.5 50V51ZM43.6127 45.8473L42.8037 45.2595C42.0944 46.2358 41.2358 47.0944 40.2595 47.8037L40.8473 48.6127L41.4351 49.4217C42.5812 48.5891 43.5891 47.5812 44.4217 46.4351L43.6127 45.8473ZM23.5 1V2C28.2094 2 31.6612 2.00137 34.3491 2.29259C37.0184 2.58179 38.8155 3.14716 40.2595 4.1963L40.8473 3.38729L41.4351 2.57827C39.5933 1.24013 37.404 0.611858 34.5646 0.304229C31.7439 -0.00137258 28.1649 0 23.5 0V1ZM46 23.5H47C47 18.8351 47.0014 15.2561 46.6958 12.4354C46.3881 9.59604 45.7599 7.40669 44.4217 5.5649L43.6127 6.15268L42.8037 6.74047C43.8528 8.1845 44.4182 9.98164 44.7074 12.6509C44.9986 15.3388 45 18.7906 45 23.5H46ZM40.8473 3.38729L40.2595 4.1963C41.2358 4.90562 42.0944 5.76418 42.8037 6.74047L43.6127 6.15268L44.4217 5.5649C43.5891 4.41882 42.5812 3.41094 41.4351 2.57827L40.8473 3.38729ZM23.5 1V0C18.8351 0 15.2561 -0.00137258 12.4354 0.304229C9.59604 0.611858 7.40669 1.24013 5.5649 2.57827L6.15268 3.38729L6.74047 4.1963C8.1845 3.14716 9.98164 2.58179 12.6509 2.29259C15.3388 2.00137 18.7906 2 23.5 2V1ZM1 23.5H2C2 18.7906 2.00137 15.3388 2.29259 12.6509C2.58179 9.98164 3.14716 8.1845 4.1963 6.74047L3.38729 6.15268L2.57827 5.5649C1.24013 7.40669 0.611858 9.59604 0.304229 12.4354C-0.00137258 15.2561 0 18.8351 0 23.5H1ZM6.15268 3.38729L5.5649 2.57827C4.41882 3.41095 3.41095 4.41882 2.57827 5.5649L3.38729 6.15268L4.1963 6.74047C4.90562 5.76418 5.76418 4.90562 6.74047 4.1963L6.15268 3.38729ZM13.5 36V37H33.5V36V35H13.5V36ZM18.5 26V27H28.5V26V25H18.5V26ZM13.5 16V17H33.5V16V15H13.5V16Z" fill="#A5A5A5"/>
</svg>
