<svg width="142" height="125" viewBox="0 0 142 125" fill="none" xmlns="http://www.w3.org/2000/svg">
<path d="M122.642 31.6066C119.234 35.0141 112.008 37.9601 106.143 34.3358C105.817 34.1342 105.654 34.0333 105.53 33.9844C105.295 33.891 105.116 33.864 104.863 33.8835C104.73 33.8938 104.58 33.9326 104.281 34.0103C102.394 34.4993 101.451 34.7439 100.771 34.6055C99.5914 34.3655 98.6695 33.4436 98.4295 32.2641C98.2912 31.5845 98.5357 30.6411 99.0247 28.7544C99.1024 28.4545 99.1413 28.3046 99.1515 28.1718C99.1709 27.9188 99.1433 27.7378 99.0494 27.5021C99.0002 27.3784 98.8995 27.2164 98.698 26.8923C95.0613 21.0403 97.8758 13.946 101.428 10.3934C107.286 4.53553 116.784 4.53553 122.642 10.3934C128.499 16.2513 128.499 25.7487 122.642 31.6066Z" stroke="#A5A5A5" stroke-width="3"/>
<path d="M107.579 20.7866C107.579 21.615 106.908 22.2866 106.079 22.2866C105.251 22.2866 104.579 21.615 104.579 20.7866C104.579 19.9582 105.251 19.2866 106.079 19.2866C106.908 19.2866 107.579 19.9582 107.579 20.7866Z" fill="#A5A5A5"/>
<path d="M113.579 20.7866C113.579 21.615 112.908 22.2866 112.079 22.2866C111.251 22.2866 110.579 21.615 110.579 20.7866C110.579 19.9582 111.251 19.2866 112.079 19.2866C112.908 19.2866 113.579 19.9582 113.579 20.7866Z" fill="#A5A5A5"/>
<path d="M119.579 20.7866C119.579 21.615 118.908 22.2866 118.079 22.2866C117.251 22.2866 116.579 21.615 116.579 20.7866C116.579 19.9582 117.251 19.2866 118.079 19.2866C118.908 19.2866 119.579 19.9582 119.579 20.7866Z" fill="#A5A5A5"/>
<path d="M118.941 90.6952L113.121 60.0327C112.31 55.7457 110.184 51.8177 107.038 48.7948C103.892 45.772 99.8824 43.8046 95.5664 43.166C98.8312 47.5408 100.843 52.7219 101.387 58.1535L103.496 79.0077C103.802 81.8881 103.517 84.8008 102.658 87.5672C101.799 90.3335 100.384 92.8953 98.4997 95.0952C99.1075 97.8241 100.774 100.2 103.134 101.7C105.493 103.2 108.352 103.701 111.081 103.093C113.81 102.485 116.186 100.818 117.686 98.4589C119.186 96.0995 119.687 93.2408 119.079 90.5118L118.941 90.6952Z" stroke="#A5A5A5" stroke-width="3" stroke-linecap="round" stroke-linejoin="round"/>
<path d="M38.5046 79.0077L40.613 58.1535C41.1567 52.7219 43.169 47.5408 46.4338 43.166C42.1178 43.8046 38.1081 45.772 34.962 48.7948C31.816 51.8177 29.69 55.7457 28.8796 60.0327L23.0588 90.6952C22.451 93.4241 22.9522 96.2828 24.4521 98.6422C25.952 101.002 28.3277 102.669 31.0567 103.276C33.7857 103.884 36.6443 103.383 39.0038 101.883C41.3632 100.383 43.0302 98.0075 43.638 95.2785C41.7054 93.0678 40.2516 90.4808 39.3681 87.6804C38.4846 84.8801 38.1906 81.9272 38.5046 79.0077Z" stroke="#A5A5A5" stroke-width="3" stroke-linecap="round" stroke-linejoin="round"/>
<path d="M82.0914 102.475H59.9081C56.915 102.489 53.9522 101.875 51.2111 100.673C48.47 99.4707 46.0115 97.7069 43.9944 95.4955C41.9774 93.284 40.4465 90.6741 39.5008 87.8343C38.5551 84.9945 38.2155 81.9878 38.5039 79.0086L40.6123 58.1544C41.3428 50.6096 44.8628 43.6089 50.4831 38.5226C56.1035 33.4364 63.4196 30.6306 70.9998 30.6544C78.5799 30.6306 85.8961 33.4364 91.5164 38.5226C97.1368 43.6089 100.657 50.6096 101.387 58.1544L103.496 79.0086C103.784 81.9878 103.444 84.9945 102.499 87.8343C101.553 90.6741 100.022 93.284 98.0051 95.4955C95.988 97.7069 93.5295 99.4707 90.7884 100.673C88.0473 101.875 85.0846 102.489 82.0914 102.475Z" stroke="#A5A5A5" stroke-width="3" stroke-linecap="round" stroke-linejoin="round"/>
<path d="M70.9995 85.9755L64.4453 78.5964C64.4453 77.0769 65.0489 75.6196 66.1233 74.5452C67.1978 73.4708 68.655 72.8672 70.1745 72.8672H71.8245C73.344 72.8672 74.8012 73.4708 75.8756 74.5452C76.95 75.6196 77.5536 77.0769 77.5536 78.5964L70.9995 85.9755Z" stroke="#A5A5A5" stroke-width="3" stroke-linecap="round" stroke-linejoin="round"/>
<path d="M71 85.9746V102.475" stroke="#A5A5A5" stroke-width="3" stroke-linecap="round" stroke-linejoin="round"/>
<path d="M56.5625 58.4746V62.3246" stroke="#A5A5A5" stroke-width="3" stroke-linecap="round" stroke-linejoin="round"/>
<path d="M85.4375 58.4746V62.3246" stroke="#A5A5A5" stroke-width="3" stroke-linecap="round" stroke-linejoin="round"/>
</svg>
