<svg width="50" height="50" viewBox="0 0 50 50" fill="none" xmlns="http://www.w3.org/2000/svg">
<path d="M28.125 33.3337C36.4583 34.3753 43.75 27.0843 43.75 23.9593C43.7499 19.7925 36.4583 18.0558 33.3333 16.667C33.3333 14.9308 31.6667 12.2921 25 11.4587C18.3333 10.6254 19.4444 14.9306 20.8333 17.7083L14.5833 21.8752C11.8055 20.4863 6.25 16.667 6.25 19.792C6.25 22.917 10.4167 22.9171 10.4167 25.0003C10.4167 27.0835 6.25 27.0837 6.25 30.2087C6.25 33.3337 14.5833 27.0835 14.5833 27.0835C17.7083 29.8613 19.7917 32.292 28.125 33.3337Z" stroke="#4D9DE0" stroke-width="2" stroke-linecap="round" stroke-linejoin="round"/>
<path d="M32.2923 33.3327C31.2506 35.8812 25.0006 39.6575 20.8342 38.541C16.6676 37.4245 19.4449 33.5619 19.7921 32.291" stroke="#4D9DE0" stroke-width="2" stroke-linecap="round"/>
<path d="M33.334 16.666C32.2923 18.0549 30.209 19.791 30.209 23.9577C30.209 28.1243 32.2923 31.2493 33.334 32.291" stroke="#4D9DE0" stroke-width="2" stroke-linecap="round"/>
</svg>
