<svg width="50" height="50" viewBox="0 0 50 50" fill="none" xmlns="http://www.w3.org/2000/svg">
<path d="M31.2503 16.666C29.5836 16.666 29.8614 18.7493 30.2086 19.791C27.0837 18.7493 19.5838 16.666 14.5838 16.666C8.33384 16.666 6.25038 21.8743 5.20871 27.0827C4.16704 32.291 6.25038 36.4577 8.33371 36.4577C10.417 36.4577 10.417 32.291 18.7504 32.291C27.0837 32.291 30.2087 36.4577 32.292 36.4577C33.9587 36.4577 33.6809 32.9855 33.3337 31.2493C38.542 31.2493 45.8337 28.1243 44.792 23.9577C43.9587 20.6243 37.5004 19.791 34.3754 19.791C34.0281 18.7493 32.917 16.666 31.2503 16.666Z" stroke="#4D9DE0" stroke-width="2" stroke-linecap="round" stroke-linejoin="round"/>
<path d="M7.29167 19.7917L6.25 18.75" stroke="#4D9DE0" stroke-width="2" stroke-linecap="round" stroke-linejoin="round"/>
<path d="M33.334 31.25C31.5979 31.5972 27.9173 31.4583 27.084 28.125" stroke="#4D9DE0" stroke-width="2" stroke-linecap="round" stroke-linejoin="round"/>
</svg>
