<svg width="111" height="128" viewBox="0 0 111 128" fill="none" xmlns="http://www.w3.org/2000/svg">
<g filter="url(#filter0_d_1837_22766)">
<path d="M77.6185 58.1341L77.6332 52.7424C77.6397 50.359 76.7006 48.0734 75.0225 46.3881C73.3445 44.7028 71.0649 43.7561 68.6854 43.7561C66.3058 43.7561 64.0211 44.7028 62.3339 46.3881C60.6467 48.0734 59.6952 50.359 59.6887 52.7424L59.7668 23.9863C59.7733 21.603 58.8342 19.3173 57.1562 17.632C55.4781 15.9468 53.1986 15 50.819 15C48.4394 15 46.1547 15.9468 44.4675 17.632C42.7803 19.3173 41.8288 21.603 41.8224 23.9863L41.7028 68.0089C41.695 70.8746 37.8976 71.89 36.4732 69.4072L31.8838 61.4081C31.298 60.385 30.5163 59.4882 29.5834 58.7688C28.6506 58.0495 27.5848 57.5217 26.4471 57.2156C25.3093 56.9095 24.1219 56.8312 22.9526 56.985C21.7834 57.1389 20.6552 57.522 19.6327 58.1123C18.6102 58.7027 17.7132 59.4888 16.9932 60.4257C16.2732 61.3626 15.7442 62.4319 15.4365 63.5725C15.1288 64.7131 15.0483 65.9027 15.1997 67.0732C15.3512 68.2437 15.7315 69.3723 16.319 70.3943C30.8458 101.268 39.7067 112.052 59.5276 112.052C64.2406 112.052 68.91 111.122 73.2692 109.316C77.6283 107.509 81.5919 104.862 84.9335 101.524C88.2752 98.1859 90.9295 94.2233 92.745 89.8623C94.5604 85.5012 95.5014 80.8271 95.5142 76.1067L95.563 58.1341C95.5695 55.7508 94.6304 53.4651 92.9524 51.7799C91.2743 50.0946 88.9948 49.1478 86.6152 49.1478C84.2356 49.1478 81.9509 50.0946 80.2637 51.7799C78.5765 53.4651 77.625 55.7508 77.6185 58.1341Z" fill="white"/>
<path d="M77.6185 58.1341L77.6332 52.7424C77.6397 50.359 76.7006 48.0734 75.0225 46.3881C73.3445 44.7028 71.0649 43.7561 68.6854 43.7561C66.3058 43.7561 64.0211 44.7028 62.3339 46.3881C60.6467 48.0734 59.6952 50.359 59.6887 52.7424L59.7668 23.9863C59.7733 21.603 58.8342 19.3173 57.1562 17.632C55.4781 15.9468 53.1986 15 50.819 15C48.4394 15 46.1547 15.9468 44.4675 17.632C42.7803 19.3173 41.8288 21.603 41.8224 23.9863L41.7028 68.0089C41.695 70.8746 37.8976 71.89 36.4732 69.4072L31.8838 61.4081C31.298 60.385 30.5163 59.4882 29.5834 58.7688C28.6506 58.0495 27.5848 57.5217 26.4471 57.2156C25.3093 56.9095 24.1219 56.8312 22.9526 56.985C21.7834 57.1389 20.6552 57.522 19.6327 58.1123C18.6102 58.7027 17.7132 59.4888 16.9932 60.4257C16.2732 61.3626 15.7442 62.4319 15.4365 63.5725C15.1288 64.7131 15.0483 65.9027 15.1997 67.0732C15.3512 68.2437 15.7315 69.3723 16.319 70.3943C30.8458 101.268 39.7067 112.052 59.5276 112.052C64.2406 112.052 68.91 111.122 73.2692 109.316C77.6283 107.509 81.5919 104.862 84.9335 101.524C88.2752 98.1859 90.9295 94.2233 92.745 89.8623C94.5604 85.5012 95.5014 80.8271 95.5142 76.1067L95.563 58.1341C95.5695 55.7508 94.6304 53.4651 92.9524 51.7799C91.2743 50.0946 88.9948 49.1478 86.6152 49.1478C84.2356 49.1478 81.9509 50.0946 80.2637 51.7799C78.5765 53.4651 77.625 55.7508 77.6185 58.1341Z" stroke="#666666" stroke-width="2" stroke-linejoin="round"/>
</g>
<defs>
<filter id="filter0_d_1837_22766" x="0.125" y="0" width="110.438" height="127.052" filterUnits="userSpaceOnUse" color-interpolation-filters="sRGB">
<feFlood flood-opacity="0" result="BackgroundImageFix"/>
<feColorMatrix in="SourceAlpha" type="matrix" values="0 0 0 0 0 0 0 0 0 0 0 0 0 0 0 0 0 0 127 0" result="hardAlpha"/>
<feOffset/>
<feGaussianBlur stdDeviation="7"/>
<feComposite in2="hardAlpha" operator="out"/>
<feColorMatrix type="matrix" values="0 0 0 0 1 0 0 0 0 1 0 0 0 0 1 0 0 0 0.12 0"/>
<feBlend mode="normal" in2="BackgroundImageFix" result="effect1_dropShadow_1837_22766"/>
<feBlend mode="normal" in="SourceGraphic" in2="effect1_dropShadow_1837_22766" result="shape"/>
</filter>
</defs>
</svg>
