<svg width="50" height="50" viewBox="0 0 50 50" fill="none" xmlns="http://www.w3.org/2000/svg">
<path d="M41 10.4635C38.069 9.8647 33.9656 9.56565 33.0863 11.3617C32.207 13.1578 33.9656 14.0557 33.9656 14.0557L32.207 15.8537L28.6896 16.7509C28.1034 16.7509 27.1069 16.0322 27.8104 13.1578C28.6899 9.56464 25.1723 10.4649 24.2932 13.1583C23.4142 15.8518 24.5861 17.351 25.1723 17.65L20.5 20C18.7414 20.8981 18.5 16.9189 16.3794 18C14.6208 18.8966 18.2586 21.5 16.5 21.5C14.7414 21.5 12.2114 20.5779 11.1034 19.4462C9.34481 17.65 8.46578 20.3428 9.34488 22.1406C10.2236 23.9377 16.3794 23.9354 16.3794 25.7317C16.3794 27.5279 10.2242 31.9075 9.34488 35.5C8.46557 39.0925 12.1181 41.9663 15.5 41C19 40 18.5 39.5 18 38.5C17.7133 37.9267 16 38 14 38.5C12.7806 38.8048 10.8621 37.0925 13.5 33.5C15.6103 30.626 19.6035 28.1267 20.7759 27.5279C20.7759 29.3242 20.7759 32.9168 23.4138 34.713C26.0517 36.5093 29.5689 33.8149 26.931 32.9168C24.2931 32.0186 23.4138 30.2224 23.4138 27.5279C23.4138 24.8335 24.2932 29.3257 26.0518 28.4276C27.4587 27.7091 26.0517 26.031 25.1724 24.8335L30.4484 23.0373C30.7415 23.636 32.8552 25.7332 34.8449 25.7332C36.6035 25.7332 39.2414 25.7317 39.2414 23.9354C39.2414 22.1391 34.8448 23.0388 33.0863 22.1406C31.6794 21.4221 34.2587 19.7456 34.8449 18.5481L36.6035 16.7515C37.4828 17.6502 37.4828 18.5481 39.2414 17.65C41 16.7518 41 13.1593 41 10.4635Z" stroke="#4D9DE0" stroke-width="2" stroke-linejoin="round"/>
</svg>
