<svg width="141" height="98" viewBox="0 0 141 98" fill="none" xmlns="http://www.w3.org/2000/svg">
<path d="M10.8142 0.0625C13.0626 0.0625307 24.6045 0.292909 27.7523 1.14211C30.9001 1.99132 36.824 5.4803 36.3962 14.9985C35.9684 24.5168 30.4004 29.1853 26.4532 31.4332C22.506 33.6811 14.1499 36.4932 10.6524 37.2777C10.6524 37.2777 10.3791 40.7325 10.1646 42.8725C9.9501 45.0125 9.33948 49.2928 9.0001 52.2625C8.5731 55.9988 8.11599 59.3571 7.81624 60.9056C7.51648 62.4542 5.86763 64.3524 3.46932 63.9528C1.071 63.5531 -0.228059 61.3552 0.171639 59.3071C0.571336 57.259 6.9169 5.3076 6.9169 3.70912C6.9169 2.11065 8.56574 0.0624693 10.8142 0.0625ZM25.6038 8.45465C23.0556 7.35568 17.853 7.15587 14.3617 8.45465L11.8634 28.7856C18.5088 27.387 29.3512 25.2996 29.3512 13.7497C29.3512 10.7719 28.152 9.55363 25.6038 8.45465Z" fill="#FEC432"/>
<path d="M22.6939 51.8904C22.9784 41.1455 29.4047 28.127 38.6167 28.866C43.6776 28.8661 47.4875 30.742 47.8287 35.7449C48.1698 40.7478 44.8196 47.0689 41.2222 49.4168C37.6247 51.7646 32.3475 52.7268 30.3003 52.6131C30.3001 53.2577 29.1119 55.7628 30.3003 57.7625C31.4892 59.7625 35.1795 59.184 38.2007 58.0125C41.2218 56.841 43.203 54.7629 46.1509 54.9627C49.0986 55.1627 49.788 57.7632 49.2007 59.6131C48.6131 61.4632 39.9595 66.2399 34.5005 66.0125C29.0415 65.7851 22.4096 62.6354 22.6939 51.8904ZM41.9214 39.2264C42.416 37.0062 40.6607 34.919 37.8746 35.4305C35.0882 35.9422 31.2242 43.0796 31.4517 45.5242C32.5701 45.619 34.6425 45.4497 36.1148 44.785C37.8776 43.989 41.1756 42.5731 41.9214 39.2264Z" fill="#FEC432"/>
<path d="M60.4998 0.09375C57.8937 0.09375 56.4881 2.12588 56.2607 3.65946C56.0334 5.19303 54.4228 18.2458 54.4228 18.2458H49.5155C48.0944 18.2458 46.3677 19.7944 46.3677 21.4928C46.3677 23.1912 47.5169 24.9396 49.5155 24.9396H53.6018C52.6355 30.525 50.7459 43.7168 50.3821 51.6689C49.9274 61.6091 54.6452 65.4147 59.3062 66.0963C63.9671 66.7779 68.4022 63.6034 70.6506 61.5554C72.8991 59.5073 72.3494 55.9106 69.1517 55.2612C65.9539 54.6118 64.8198 59.1666 61.6366 58.9962C58.4535 58.8258 58.2094 54.6393 58.2094 52.4241C58.2094 50.6519 60.4891 33.2893 61.607 24.9396H66.9229C68.2871 24.9396 69.8786 23.7229 69.9355 21.678C69.9923 19.6332 68.2519 18.2458 66.6035 18.2458H62.4064C62.9748 14.213 63.9054 6.5068 64.1052 4.50867C64.3051 2.51053 63.1059 0.09375 60.4998 0.09375Z" fill="#FEC432"/>
<path d="M128.606 0.0625C126.005 0.0625 124.602 2.09474 124.375 3.62839C124.148 5.16204 122.54 18.2155 122.54 18.2155H117.642C116.224 18.2155 114.5 19.7641 114.5 21.4626C114.5 23.1611 115.647 24.9096 117.642 24.9096H121.721C120.756 30.4953 118.87 43.6877 118.507 51.6402C118.053 61.5809 122.762 65.3867 127.415 66.0684C132.067 66.75 136.494 63.5754 138.738 61.5272C140.982 59.479 140.433 55.8822 137.242 55.2328C134.05 54.5833 132.918 59.1383 129.741 58.9679C126.564 58.7975 126.32 54.6108 126.32 52.3954C126.32 50.6232 128.595 33.2597 129.711 24.9096H135.017C136.379 24.9096 137.967 23.6928 138.024 21.6479C138.081 19.6029 136.344 18.2155 134.698 18.2155H130.509C131.076 14.1824 132.005 6.47587 132.205 4.47764C132.404 2.4794 131.207 0.0625 128.606 0.0625Z" fill="#FEC432"/>
<path d="M91.3755 0.488433C98.256 -1.32872 102.805 3.04459 103.089 6.50894C103.374 9.97334 102.805 15.0848 99.0523 23.6037C96.0498 30.4188 87.125 38.4813 82.9927 41.6808L82.6929 44.1056H87.1675C89.0438 44.1058 90.2949 45.8668 90.1812 47.5705C90.0675 49.2742 89.6693 50.6631 87.1675 50.6632H81.9429L80.2945 64.1867C83.043 62.142 89.4884 57.1009 90.8374 56.0031C92.1865 54.9054 94.5841 54.7057 95.9331 56.5519C97.2821 58.3982 96.4829 60.2941 95.2339 61.2921C93.9848 62.2901 78.1319 74.3761 77.8462 75.1154C77.5619 75.8537 77.3295 79.4884 76.3628 86.8712C75.3961 94.2544 70.6761 97.6623 65.0464 97.6623C59.4169 97.6621 55.7777 92.6078 55.3228 89.5978C54.8679 86.5877 55.2661 82.0439 57.9956 79.9425C60.1797 78.2611 67.7768 72.6164 71.3023 70.0041L73.8491 50.6632C72.8256 50.6822 70.4599 50.7087 69.1861 50.6632C67.5938 50.6064 66.696 49.7854 66.6392 47.5705C66.5823 45.3557 68.0602 44.1058 69.5386 44.1056H74.7984C75.6513 37.6877 76.8085 23.5966 77.9458 18.3263C79.3676 11.7383 84.495 2.3058 91.3755 0.488433ZM69.8238 80.2834C67.5683 81.6652 63.0568 84.9175 63.0562 86.8712C63.0562 89.3133 64.08 90.279 66.0132 90.0519C67.9466 89.8247 69.4826 85.5084 69.8238 80.2834ZM95.981 10.882C96.2084 8.4399 94.503 6.11196 90.6363 9.2355C87.5428 11.7344 85.0634 25.0807 84.2105 31.4416C86.2197 29.0183 90.6135 23.5815 92.1148 21.2189C93.9913 18.2656 95.7535 13.3241 95.981 10.882Z" fill="#FEC432"/>
<path d="M103.739 28.6855C107.378 28.6858 107.444 32.3038 107.138 34.207C106.832 36.1116 105.75 47.0722 105.05 51.8174C104.351 56.5627 105.963 58.7531 108.268 59.0049C110.574 59.2567 111.516 55.1009 114.529 55.1445C117.542 55.1885 118.929 58.455 117.191 60.7939C115.453 63.133 110.649 66.6162 106 65.8662C101.35 65.1162 97.8997 62.2616 97.1998 56.5117C96.5 50.7618 98.8823 37.3883 99.3375 34.207C99.8556 32.276 100.099 28.6855 103.739 28.6855ZM104.49 18.2451C106.366 18.2451 107.887 19.7664 107.887 21.6426C107.887 23.5188 106.366 25.04 104.49 25.04C102.614 25.0398 101.093 23.5187 101.093 21.6426C101.093 19.7665 102.614 18.2453 104.49 18.2451Z" fill="#FEC432"/>
</svg>
