<svg width="16" height="16" viewBox="0 0 16 16" fill="none" xmlns="http://www.w3.org/2000/svg">
<path d="M12.3335 14.9997H3.66681C3.412 14.9977 3.16032 14.9433 2.92739 14.84C2.69445 14.7367 2.48523 14.5866 2.3127 14.3991C2.14017 14.2115 2.00802 13.9905 1.92444 13.7498C1.84085 13.5091 1.80763 13.2538 1.82681 12.9997L2.05348 9.43967C2.01994 7.64976 2.18088 5.8615 2.53348 4.10634L2.70015 3.33301H13.3335L13.5001 4.14634C13.8527 5.9015 14.0137 7.68976 13.9801 9.47967L14.2068 13.0397C14.2205 13.2933 14.182 13.5471 14.0939 13.7854C14.0057 14.0236 13.8696 14.2413 13.6941 14.4249C13.5186 14.6085 13.3073 14.7543 13.0733 14.8531C12.8393 14.952 12.5875 15.0019 12.3335 14.9997Z" stroke="#373737" stroke-width="1.2" stroke-linecap="round" stroke-linejoin="round"/>
<path d="M13.3004 1H2.70044V3.3H13.3004V1Z" stroke="#373737" stroke-width="1.2" stroke-linecap="round" stroke-linejoin="round"/>
<path d="M8.4668 11.2331L8.00014 11.1598L7.53347 11.2331C7.41621 11.2518 7.29617 11.2417 7.18367 11.2038C7.07117 11.1658 6.96956 11.1011 6.8876 11.0152C6.80563 10.9293 6.74574 10.8248 6.71309 10.7106C6.68044 10.5964 6.67599 10.4761 6.70014 10.3598L6.75347 10.1331C6.87347 9.54647 7.42014 8.7998 8.00014 8.7998C8.60014 8.7998 9.1268 9.55314 9.2468 10.1331L9.30014 10.3598C9.32428 10.4761 9.31984 10.5964 9.28718 10.7106C9.25453 10.8248 9.19465 10.9293 9.11268 11.0152C9.03071 11.1011 8.92911 11.1658 8.8166 11.2038C8.7041 11.2417 8.58406 11.2518 8.4668 11.2331Z" stroke="#373737" stroke-width="1.2" stroke-linecap="round" stroke-linejoin="round"/>
<circle cx="10.4272" cy="8.38639" r="0.666667" fill="#373737"/>
<circle cx="8.93351" cy="7.05339" r="0.666667" fill="#373737"/>
<circle cx="5.57292" cy="8.38639" r="0.666667" fill="#373737"/>
<circle cx="7.06632" cy="7.05339" r="0.666667" fill="#373737"/>
</svg>
