<svg width="24" height="25" viewBox="0 0 24 25" fill="none" xmlns="http://www.w3.org/2000/svg">
<path d="M12.0001 7.5V13.5M12.0001 21.5C7.45289 21.5 5.17931 21.5 3.86498 20.5451C2.71857 19.7122 1.97942 18.4319 1.8313 17.0226C1.66148 15.4069 2.79827 13.438 5.07186 9.5C7.34544 5.56204 8.48223 3.59306 9.96638 2.93227C11.2609 2.35591 12.7392 2.35591 14.0337 2.93227C15.5179 3.59306 16.6547 5.56204 18.9283 9.5C21.2018 13.438 22.3386 15.4069 22.1688 17.0226C22.0207 18.4319 21.2816 19.7122 20.1351 20.5451C18.8208 21.5 16.5472 21.5 12.0001 21.5Z" stroke="#FF5C33" stroke-width="1.5" stroke-linecap="round"/>
<path d="M13 16.5C13 17.0523 12.5523 17.5 12 17.5C11.4477 17.5 11 17.0523 11 16.5C11 15.9477 11.4477 15.5 12 15.5C12.5523 15.5 13 15.9477 13 16.5Z" fill="#FF5C33"/>
</svg>
