<svg width="24" height="25" viewBox="0 0 24 25" fill="none" xmlns="http://www.w3.org/2000/svg">
<path d="M5.07161 9.5C7.3452 5.56204 8.48199 3.59306 9.96613 2.93227C11.2607 2.35591 12.739 2.35591 14.0335 2.93227C15.5176 3.59306 16.6544 5.56204 18.928 9.5C21.2016 13.438 22.3384 15.4069 22.1686 17.0226C22.0205 18.4319 21.2813 19.7122 20.1349 20.5451C18.8206 21.5 16.547 21.5 11.9998 21.5C7.45265 21.5 5.17906 21.5 3.86474 20.5451C2.71832 19.7122 1.97917 18.4319 1.83105 17.0226C1.66124 15.4069 2.79803 13.438 5.07161 9.5Z" fill="#FFC533"/>
<path d="M12 15.5C12.5523 15.5 13 15.9477 13 16.5C13 17.0523 12.5523 17.5 12 17.5C11.4477 17.5 11 17.0523 11 16.5C11 15.9477 11.4477 15.5 12 15.5Z" fill="white"/>
<path d="M12 6.75C12.4142 6.75 12.75 7.08579 12.75 7.5V13.5C12.75 13.9142 12.4142 14.25 12 14.25C11.5858 14.25 11.25 13.9142 11.25 13.5V7.5C11.25 7.08579 11.5858 6.75 12 6.75Z" fill="white"/>
</svg>
