<svg width="16" height="16" viewBox="0 0 16 16" fill="none" xmlns="http://www.w3.org/2000/svg">
<g clip-path="url(#clip0_672_3131)">
<path d="M7.69516 4.25H6.86572C6.25509 4.25 5.66631 4.4961 5.25828 4.95038C4.37163 5.9375 3.82865 6.73184 3.23107 8.11888C2.50677 10.1018 2.56321 10.9412 2.93346 12.2854C3.26766 13.3522 3.7874 13.8715 4.88365 14.3141C5.55053 14.5833 6.27499 14.6662 6.99415 14.6662H7.69516" stroke="#373737" stroke-width="1.5" stroke-linecap="round"/>
<path d="M5.90917 4.24974C5.45255 3.76591 5.21421 3.42273 5.09717 3.09616C4.86592 2.45094 5.74457 2.06556 6.23632 2.54303C6.81511 3.10502 7.31042 3.71726 7.69474 4.24974" stroke="#373737" stroke-width="1.5" stroke-linecap="round"/>
<path d="M7.87466 4.25H8.7041C9.31473 4.25 9.90351 4.4961 10.3115 4.95038C11.1982 5.9375 11.7412 6.73184 12.3388 8.11888C13.0631 10.1018 13.0066 10.9412 12.6364 12.2854C12.3022 13.3522 11.7824 13.8715 10.6862 14.3141C10.0193 14.5833 9.29483 14.6662 8.57567 14.6662H7.87466" stroke="#373737" stroke-width="1.5" stroke-linecap="round"/>
<path d="M9.66041 4.24974C10.117 3.76591 10.3554 3.42273 10.4724 3.09616C10.7037 2.45094 9.82501 2.06556 9.33326 2.54303C8.75447 3.10502 8.25916 3.71726 7.87484 4.24974" stroke="#373737" stroke-width="1.5" stroke-linecap="round"/>
<path d="M6.83325 4.24973L6.84223 4.18692C6.98824 3.16484 8.46391 3.16484 8.60992 4.18692L8.61889 4.24973" stroke="#373737" stroke-width="1.5" stroke-linecap="round"/>
</g>
<defs>
<clipPath id="clip0_672_3131">
<rect width="16" height="16" fill="white"/>
</clipPath>
</defs>
</svg>
