<svg width="16" height="16" viewBox="0 0 16 16" fill="none" xmlns="http://www.w3.org/2000/svg">
<path d="M4.52246 9.24972C4.93059 9.24972 5.26396 9.57607 5.27246 9.9841C5.27725 10.2136 5.43559 10.8109 5.85352 11.3474C6.24738 11.8529 6.82644 12.2497 7.66602 12.2497C8.48374 12.2497 8.93652 11.8841 9.25977 11.403C9.63776 10.8404 9.76328 10.2754 9.99805 9.71164L10.0488 9.61105C10.1833 9.38909 10.4256 9.24972 10.6904 9.24972H14.4131L14.4902 9.25363C14.8684 9.29211 15.1631 9.61145 15.1631 9.99972C15.163 10.4139 14.8273 10.7497 14.4131 10.7497H11.2119C11.0598 11.1686 10.8322 11.7528 10.5049 12.24C9.96447 13.0442 9.08428 13.7497 7.66602 13.7497C6.26968 13.7497 5.28543 13.0579 4.6709 12.2693C4.29172 11.7826 4.03437 11.2357 3.89551 10.7497H1.08008C0.6659 10.7497 0.330136 10.4139 0.330078 9.99972C0.330078 9.58551 0.665865 9.24972 1.08008 9.24972H4.52246ZM11.3291 3.04953C11.664 2.97234 12.0084 3.13229 12.165 3.4382C12.3214 3.74428 12.2499 4.11809 11.9912 4.34445C11.7931 4.51792 11.5344 4.88244 11.2471 5.4255C10.9701 5.94898 10.7015 6.56944 10.46 7.18625C9.97726 8.41894 9.62521 9.58154 9.54688 9.83078C9.43986 10.1712 9.25823 10.6121 8.97656 10.9782C8.69822 11.3398 8.22075 11.7489 7.53906 11.7097C7.01318 11.6793 6.44879 11.4257 6.07031 10.9314C5.67498 10.4148 5.5431 9.71702 5.74316 8.92843C5.80942 8.66763 5.94954 8.39758 6.09668 8.15597C6.2514 7.90196 6.44781 7.62577 6.66602 7.3425C7.10312 6.77509 7.65795 6.14431 8.22461 5.55246C8.79126 4.96064 9.38224 4.39472 9.89551 3.95871C10.1513 3.74141 10.3975 3.54795 10.6182 3.39816C10.8142 3.2651 11.0711 3.10908 11.3291 3.04953ZM8.92676 6.99484C8.52737 7.42991 8.15605 7.8661 7.85449 8.25754C7.65648 8.51459 7.49488 8.74425 7.37793 8.93625C7.25381 9.14005 7.20766 9.25689 7.19727 9.29757C7.09152 9.71452 7.18799 9.92287 7.26172 10.0193C7.3523 10.1375 7.49765 10.2052 7.62598 10.2126H7.62695C7.62812 10.2123 7.63435 10.2104 7.64551 10.2038C7.67382 10.1871 7.72418 10.1462 7.78809 10.0632C7.9204 9.89117 8.03638 9.6345 8.11621 9.38058C8.18452 9.1632 8.49319 8.1444 8.92676 6.99484Z" fill="currentColor"/>
</svg>
