<svg width="16" height="16" viewBox="0 0 16 16" fill="none" xmlns="http://www.w3.org/2000/svg">
<g clip-path="url(#clip0_672_6823)">
<path d="M8.93641 0.513775C9.20394 0.517568 9.4364 0.62156 9.62 0.769635L9.69618 0.836041L9.86707 1.00987C9.93021 1.07858 9.99405 1.1523 10.0585 1.23057C10.7296 1.02081 11.3519 0.957376 11.952 1.15733C12.619 1.37969 13.1203 1.88491 13.5858 2.48057L14.3514 2.73546C15.0659 2.97362 15.5486 3.64248 15.5487 4.39561V5.45616L15.5145 5.56456C15.1812 6.63393 14.2403 7.05989 13.122 7.33897C12.9622 7.37884 12.8818 7.50619 12.8817 7.61338V8.69249C13.4267 10.7912 13.5352 12.1065 13.5477 13.9825C13.5534 14.8451 12.8519 15.5361 11.9999 15.5362C11.3889 15.5362 10.7727 15.1661 10.5663 14.5069C10.2484 13.4911 10.2252 12.5391 10.1454 11.6632C10.1402 11.607 10.088 11.5365 9.98426 11.5362C9.88795 11.5362 9.7986 11.6102 9.78602 11.7189C9.67981 12.6449 9.55558 13.4857 9.33778 14.4005C9.17497 15.0841 8.56073 15.5361 7.88758 15.5362C7.05595 15.5362 6.38194 14.862 6.38172 14.0304V12.5851C6.24433 12.757 6.03492 12.8692 5.79774 12.8692H4.21473V14.0724C4.21454 14.8807 3.5592 15.5361 2.75086 15.5362C2.01739 15.5362 1.41614 14.9984 1.29481 14.3028C1.01273 12.6861 0.51434 11.2203 1.20204 9.62315C0.700771 9.08444 0.471193 8.47665 0.425668 7.88487C0.370344 7.16404 0.589826 6.52549 0.793832 6.11729L0.831918 6.05088C1.03526 5.73 1.45248 5.60817 1.79969 5.78135C2.17008 5.9665 2.32059 6.41774 2.13563 6.78819L2.04383 6.99913C1.95882 7.22661 1.90003 7.49803 1.92079 7.76963C1.93789 7.99192 2.01155 8.2392 2.20887 8.49131C2.59284 8.2488 2.96055 8.06663 3.35145 7.94053C3.89557 7.76509 4.4393 7.71154 5.06141 7.70323C5.93957 7.57712 6.47077 7.43189 6.85829 7.23448C7.17445 7.07332 7.43078 6.85965 7.71473 6.52159V1.91905C7.71479 1.50904 7.87477 1.06687 8.20985 0.78233C8.38645 0.632452 8.63621 0.509596 8.93641 0.513775ZM8.73328 7.63682C8.3925 8.01596 8.01841 8.32648 7.53993 8.57042C6.92491 8.88382 6.18878 9.06065 5.23622 9.19542L5.18739 9.20225H5.13758C4.55672 9.2072 4.16738 9.25384 3.81239 9.36827C3.48742 9.47307 3.15051 9.65028 2.70106 9.96885C2.10677 11.0545 2.37956 11.8991 2.71473 13.7306V11.1192C2.71498 10.7051 3.05157 10.3691 3.46571 10.3692C3.87951 10.3696 4.21458 10.7054 4.21473 11.1192V11.3692H5.79774C6.03483 11.3693 6.24433 11.4816 6.38172 11.6534V11.1192C6.38191 10.7052 6.71763 10.3692 7.13172 10.3692C7.54564 10.3695 7.88153 10.7053 7.88172 11.1192V14.0323C8.07738 13.2059 8.19395 12.4358 8.29579 11.548C8.39374 10.695 9.11263 10.0362 9.98426 10.0362C10.8158 10.0365 11.5597 10.6519 11.6395 11.5274C11.7295 12.5152 11.7417 13.2271 11.9901 14.0343C11.9929 14.0348 11.9962 14.0362 11.9999 14.0362C12.0302 14.0361 12.0479 14.0121 12.0477 13.9923C12.0356 12.185 11.9348 10.9866 11.4061 8.97667L11.3817 8.88292V8.3585L8.73328 7.63682ZM1.16004 0.767682C1.51486 0.609982 1.9264 0.750236 2.11512 1.08018L2.15028 1.14854L2.36805 1.61827C2.87524 2.66451 3.37976 3.36841 3.99793 3.9044C4.61912 4.4429 5.40039 4.85183 6.52137 5.23936L7.02235 5.4044L7.09461 5.43077C7.44404 5.58066 7.62991 5.97428 7.51356 6.34483C7.38921 6.73961 6.9681 6.95909 6.57313 6.83506C5.09159 6.36982 3.94937 5.84773 3.01551 5.03819C2.19551 4.32729 1.58034 3.43389 1.01747 2.27256L0.779184 1.75792L0.75184 1.68663C0.633105 1.32543 0.805258 0.925557 1.16004 0.767682ZM11.4774 2.58116C11.2352 2.50052 10.8613 2.5019 10.077 2.81553L9.53993 3.03038L9.21473 2.59092V6.21299L11.5565 6.85167C11.7902 6.37065 12.2363 6.01422 12.7587 5.88389C13.6864 5.65242 13.9464 5.42891 14.0487 5.20518V4.39561C14.0486 4.28823 13.9796 4.19238 13.8778 4.15831L12.8944 3.83116L12.6718 3.75694L12.5311 3.56944C12.039 2.91297 11.7406 2.66893 11.4774 2.58116ZM11.2977 3.45323C11.5739 3.45323 11.7977 3.67709 11.7977 3.95323C11.7975 4.22918 11.5737 4.45323 11.2977 4.45323C11.0219 4.45298 10.798 4.22903 10.7977 3.95323C10.7977 3.67724 11.0218 3.45348 11.2977 3.45323Z" fill="#373737"/>
</g>
<defs>
<clipPath id="clip0_672_6823">
<rect width="16" height="16" fill="white"/>
</clipPath>
</defs>
</svg>
