<svg width="110" height="110" viewBox="0 0 110 110" fill="none" xmlns="http://www.w3.org/2000/svg">
<path d="M102.941 78.6952L97.1206 48.0327C96.3102 43.7457 94.1842 39.8177 91.0382 36.7948C87.8921 33.772 83.8824 31.8046 79.5664 31.166C82.8312 35.5408 84.8435 40.7219 85.3872 46.1535L87.4956 67.0077C87.8024 69.8881 87.5175 72.8008 86.6584 75.5672C85.7993 78.3335 84.3842 80.8953 82.4997 83.0952C83.1075 85.8241 84.7745 88.1999 87.1339 89.6998C89.4934 91.1997 92.352 91.7009 95.081 91.0931C97.81 90.4853 100.186 88.8183 101.686 86.4589C103.186 84.0995 103.687 81.2408 103.079 78.5118L102.941 78.6952Z" stroke="#A5A5A5" stroke-width="3" stroke-linecap="round" stroke-linejoin="round"/>
<path d="M22.5046 67.0077L24.613 46.1535C25.1567 40.7219 27.169 35.5408 30.4338 31.166C26.1178 31.8046 22.1081 33.772 18.962 36.7948C15.816 39.8177 13.69 43.7457 12.8796 48.0327L7.05879 78.6952C6.451 81.4241 6.95218 84.2828 8.45208 86.6422C9.95198 89.0017 12.3277 90.6686 15.0567 91.2764C17.7857 91.8842 20.6443 91.383 23.0038 89.8831C25.3632 88.3832 27.0302 86.0075 27.638 83.2785C25.7054 81.0678 24.2516 78.4808 23.3681 75.6804C22.4846 72.8801 22.1906 69.9272 22.5046 67.0077Z" stroke="#A5A5A5" stroke-width="3" stroke-linecap="round" stroke-linejoin="round"/>
<path d="M66.0914 90.4753H43.9081C40.915 90.4892 37.9522 89.8752 35.2111 88.673C32.47 87.4707 30.0115 85.7069 27.9944 83.4955C25.9774 81.284 24.4465 78.6741 23.5008 75.8343C22.5551 72.9945 22.2155 69.9878 22.5039 67.0086L24.6123 46.1544C25.3428 38.6096 28.8628 31.6089 34.4831 26.5226C40.1035 21.4364 47.4196 18.6306 54.9998 18.6544C62.5799 18.6306 69.8961 21.4364 75.5164 26.5226C81.1368 31.6089 84.6567 38.6096 85.3873 46.1544L87.4956 67.0086C87.784 69.9878 87.4444 72.9945 86.4987 75.8343C85.553 78.6741 84.0221 81.284 82.0051 83.4955C79.988 85.7069 77.5295 87.4707 74.7884 88.673C72.0473 89.8752 69.0846 90.4892 66.0914 90.4753Z" stroke="#A5A5A5" stroke-width="3" stroke-linecap="round" stroke-linejoin="round"/>
<path d="M54.9995 73.9755L48.4453 66.5964C48.4453 65.0769 49.0489 63.6196 50.1233 62.5452C51.1978 61.4708 52.655 60.8672 54.1745 60.8672H55.8245C57.344 60.8672 58.8012 61.4708 59.8756 62.5452C60.95 63.6196 61.5536 65.0769 61.5536 66.5964L54.9995 73.9755Z" stroke="#A5A5A5" stroke-width="3" stroke-linecap="round" stroke-linejoin="round"/>
<path d="M55 73.9746V90.4746" stroke="#A5A5A5" stroke-width="3" stroke-linecap="round" stroke-linejoin="round"/>
<path d="M41.925 47.0347L39.2027 49.757" stroke="#A5A5A5" stroke-width="3" stroke-linecap="round" stroke-linejoin="round"/>
<path d="M68.0779 47.042L70.8002 49.7644" stroke="#A5A5A5" stroke-width="3" stroke-linecap="round" stroke-linejoin="round"/>
</svg>
